<?xml version="1.0" encoding="UTF-8"?>
<svg width="766px" height="505px" viewBox="0 0 766 505" version="1.1" xmlns="http://www.w3.org/2000/svg" xmlns:xlink="http://www.w3.org/1999/xlink">
    <!-- Generator: Sketch 51.3 (57544) - http://www.bohemiancoding.com/sketch -->
    <title>bg-top</title>
    <desc>Created with Sketch.</desc>
    <defs>
        <linearGradient x1="50%" y1="-2.48949813e-15%" x2="50%" y2="88.8584955%" id="linearGradient-1">
            <stop stop-color="#4070FF" offset="0%"></stop>
            <stop stop-color="#2E4079" offset="100%"></stop>
        </linearGradient>
        <path d="M758.9375,7 L791,499.609863 C360.197323,502.962084 133.525789,502.962084 110.985397,499.609863 C77.1748091,494.581532 6.56945001,497.669341 0.9375,393.558594 L0.9375,110.393422 L0.9375,0 L758.9375,7 Z" id="path-2"></path>
        <linearGradient x1="50%" y1="-2.48949813e-15%" x2="50%" y2="88.8584955%" id="linearGradient-4">
            <stop stop-color="#122358" offset="0%"></stop>
            <stop stop-color="#233368" offset="100%"></stop>
        </linearGradient>
        <path d="M791.453125,-23.6367188 L791.453125,475.664407 C360.922098,479.014825 134.398741,479.014825 111.883053,475.664407 C78.1095221,470.638781 10.2976524,474.043021 4.671875,369.988281 L4.671875,-44.4921875 L791.453125,-23.6367188 Z" id="path-5"></path>
    </defs>
    <g id="Page-1" stroke="none" stroke-width="1" fill="none" fill-rule="evenodd">
        <g id="02-Home-mobile">
            <g id="header" transform="translate(-119.000000, 2.000000)">
                <g id="bg-top" transform="translate(95.000000, 0.000000)">
                    <mask id="mask-3" fill="white">
                        <use xlink:href="#path-2"></use>
                    </mask>
                    <use id="Mask" fill="url(#linearGradient-1)" transform="translate(395.968750, 251.062014) scale(-1, 1) translate(-395.968750, -251.062014) " xlink:href="#path-2"></use>
                    <mask id="mask-6" fill="white">
                        <use xlink:href="#path-5"></use>
                    </mask>
                    <use id="Mask" fill="url(#linearGradient-4)" transform="translate(398.062500, 216.842516) scale(-1, 1) translate(-398.062500, -216.842516) " xlink:href="#path-5"></use>
                </g>
            </g>
        </g>
    </g>
</svg>